<?xml version="1.0" encoding="UTF-8" standalone="no"?>
<!-- Generator: Adobe Illustrator 16.0.0, SVG Export Plug-In . SVG Version: 6.00 Build 0)  -->
<svg version="1.1" id="Layer_1" x="0px" y="0px" width="241.91299" height="241.912" viewBox="0 0 241.91299 241.912" xml:space="preserve" sodipodi:docname="Scienza, Tecnologia, Ingegneria e Matematica.svg" inkscape:version="1.3.2 (091e20e, 2023-11-25, custom)" xmlns:inkscape="http://www.inkscape.org/namespaces/inkscape" xmlns:sodipodi="http://sodipodi.sourceforge.net/DTD/sodipodi-0.dtd" xmlns="http://www.w3.org/2000/svg" xmlns:svg="http://www.w3.org/2000/svg" xmlns:rdf="http://www.w3.org/1999/02/22-rdf-syntax-ns#" xmlns:cc="http://creativecommons.org/ns#" xmlns:dc="http://purl.org/dc/elements/1.1/"><title id="title1">Scienza, Tecnologia, Ingegneria e Matematica</title><defs id="defs15"/><sodipodi:namedview id="namedview13" pagecolor="#ffffff" bordercolor="#666666" borderopacity="1.0" inkscape:pageshadow="2" inkscape:pageopacity="0.0" inkscape:pagecheckerboard="0" showgrid="false" inkscape:zoom="2.0108349" inkscape:cx="213.34422" inkscape:cy="111.64517" inkscape:window-width="2048" inkscape:window-height="1089" inkscape:window-x="1358" inkscape:window-y="-8" inkscape:window-maximized="1" inkscape:current-layer="Layer_1" inkscape:showpageshadow="0" inkscape:deskcolor="#d1d1d1"/>

<style type="text/css" id="style4083">* { fill: #36c }</style><style type="text/css" id="style16213">* { fill: #fff }</style><style type="text/css" id="style24959">* { fill: #fff }</style><metadata id="metadata1"><rdf:RDF><cc:Work rdf:about=""><dc:title>Scienza, Tecnologia, Ingegneria e Matematica</dc:title></cc:Work></rdf:RDF></metadata><g id="g1"><g transform="matrix(4.7576846,0,0,4.7576846,5.0000058,4.9891526)" id="g887"><rect style="fill:#b30b0c;fill-opacity:1" id="rect18" height="23.105" width="23.105" y="4.7302245e-07" x="-1.2207031e-06"/><rect style="fill:#ff8100;fill-opacity:1" id="rect20" height="23.105" width="23.105" y="4.7302245e-07" x="25.639997"/><rect style="fill:#0078d4" id="rect22" height="23.105" width="23.105" y="25.642" x="-1.2207031e-06"/><rect style="fill:#008c00;fill-opacity:1" id="rect24" height="23.105" width="23.105" y="25.642" x="25.639997"/></g><g id="g4102" transform="matrix(4.3174584,0,0,4.3173939,15.27895,1.5460647)" style="fill:#ffffff"><path d="M 5,3 V 5 L 6,4.998 v 2.36 L 1.39,15.235 C 1.01,15.849 1.02,16.573 1.344,17.11 1.668,17.648 2.287,18 3,18 h 14 c 0.713,0 1.33,-0.353 1.654,-0.89 0.324,-0.536 0.335,-1.258 -0.043,-1.873 L 14,7.357 V 4.999 h 1 V 3 H 12.5 A 0.5,0.5 0 0 0 12,3.5 v 4 c 0,0.092 0.025,0.402 0.074,0.48 l 3.94,6.783 c 0.202,0.33 0.174,0.606 0.037,0.834 -0.137,0.227 -0.402,0.404 -0.797,0.404 H 4.746 c -0.395,0 -0.66,-0.179 -0.8,-0.407 -0.136,-0.228 -0.165,-0.503 0.038,-0.83 10e-4,0 0.002,0 0.002,-0.002 L 7.926,7.98 C 7.974,7.9 8,7.591 8,7.5 v -4 A 0.5,0.5 0 0 0 7.5,3 Z" id="flask" style="fill:#ffffff"/><path d="M 7.3,11.056 5,15 H 15 L 13.33,12.082 C 12.034,12.309 8.85,11.192 7.3,11.056 Z m 1.181,1.399 a 1,1 0 1 1 0,2 1,1 0 0 1 0,-2 z" id="liquid" style="fill:#ffffff"/><circle r="1.154" cy="2.424" cx="10.617" id="bubble1" stroke-width="1.13" style="fill:#ffffff"/><ellipse ry="0.65399998" rx="0.64300001" cy="5.5890002" cx="9.4689999" id="bubble2" stroke-width="0.824" style="fill:#ffffff"/><circle r="1.095" cy="9.6730003" cx="10.734" id="bubble3" style="fill:#ffffff"/></g><path d="m 226.95256,45.003676 v -2.199043 c 0,-1.215001 -0.9769,-2.199072 -2.18308,-2.199072 h -38.2041 v -5.497659 h 9.82392 c 2.41095,0 4.36617,-1.969523 4.36617,-4.398115 V 13.11729 c 0,-2.428603 -1.95522,-4.3981351 -4.36617,-4.3981351 h -26.19709 c -2.41098,0 -4.3662,1.9695321 -4.3662,4.3981351 v 17.592497 c 0,2.428592 1.95522,4.398115 4.3662,4.398115 h 9.8239 v 5.497659 h -38.2041 c -1.20614,0 -2.18309,0.9841 -2.18309,2.199072 v 2.199043 c 0,1.215002 0.9769,2.199073 2.18309,2.199073 h 14.19009 v 5.497659 h -7.64082 c -2.41094,0 -4.36617,1.969522 -4.36617,4.398135 v 17.592496 c 0,2.428584 1.95523,4.398116 4.36617,4.398116 h 21.83093 c 2.41095,0 4.36617,-1.969532 4.36617,-4.398116 V 57.098543 c 0,-2.428613 -1.95522,-4.398135 -4.36617,-4.398135 h -7.64084 v -5.497659 h 41.47874 v 5.497659 h -7.64081 c -2.41096,0 -4.36619,1.969522 -4.36619,4.398135 v 17.592496 c 0,2.428584 1.95523,4.398116 4.36619,4.398116 h 21.8309 c 2.41095,0 4.36619,-1.969532 4.36619,-4.398116 V 57.098543 c 0,-2.428613 -1.95524,-4.398135 -4.36619,-4.398135 h -7.64083 v -5.497659 h 14.19011 c 1.20616,0 2.18308,-0.98408 2.18308,-2.199073 z M 174.55838,26.311653 v -8.796249 h 17.46473 v 8.796249 z m -8.73237,43.981253 h -13.09853 v -8.796248 h 13.09853 z m 48.02802,0 h -13.09856 v -8.796248 h 13.09856 z" id="path14271" style="fill:#ffffff;stroke-width:0.136941"/><g id="g16228" transform="matrix(4.1945,0,0,3.7445,20.079303,129.95915)"><path d="M 10,2.5 A 7.5,7.5 0 1 0 17.5,10 7.5,7.5 0 0 0 10,2.5 Z m 0,11 A 3.5,3.5 0 1 1 13.5,10 3.5,3.5 0 0 1 10,13.5 Z" id="path16215"/><path d="M 12,3.29 11.5,0 h -3 L 8,3.29 a 7,7 0 0 1 4,0 z M 8,16.71 8.5,20 h 3 L 12,16.71 a 7,7 0 0 1 -4,0 z m 8.16,-10.04 2,-2.68 -2.16,-2.12 -2.68,2 A 7,7 0 0 1 16.15,6.7 Z M 3.84,13.33 1.87,16 4,18.13 l 2.68,-2 A 7,7 0 0 1 3.85,13.3 Z M 16.71,12 20,11.5 v -3 L 16.71,8 a 7,7 0 0 1 0,4 z M 3.29,8 0,8.5 v 3 L 3.29,12 a 7,7 0 0 1 0,-4 z m 10.04,8.16 2.68,2 2.12,-2.16 -2,-2.68 A 7,7 0 0 1 13.3,16.15 Z M 6.67,3.84 4,1.87 1.87,4 l 2,2.68 a 7,7 0 0 1 2.8,-2.84 z" id="path16217"/></g><path d="m 202.7919,161.95036 -30.57882,28.24004 h 41.60927 v -6.86438 h 8.90991 v 20.59313 h -77.2192 l 39.59563,-36.61 -39.59563,-36.61 h 77.2192 v 18.305 h -8.90991 v -11.44063 h -37.94432" id="sigma" style="stroke-width:5.2137"/><path style="font-weight:bold;font-size:16px;line-height:125%;font-family:Tahoma;-inkscape-font-specification:'Tahoma Bold';letter-spacing:0px;word-spacing:0px;stroke-width:1.25162px" d="m 18.92306,101.7865 q -1.67209,0 -2.94327,-0.32269 -1.2614,-0.32268 -2.34679,-0.8018 v -3.461521 h 0.33247 q 1.09517,0.928937 2.41524,1.427637 1.32006,0.49869 2.5619,0.49869 0.31291,0 0.82138,-0.0685 0.51824,-0.0685 0.83115,-0.21513 0.38135,-0.16623 0.64537,-0.45957 0.26402,-0.30313 0.26402,-0.792048 0,-0.547584 -0.43025,-0.889814 -0.43024,-0.342245 -1.02673,-0.498697 -0.74315,-0.195566 -1.59385,-0.371575 -0.84094,-0.176009 -1.57431,-0.430244 -1.69164,-0.596475 -2.42501,-1.603638 -0.73337,-1.007163 -0.73337,-2.522797 0,-2.04366 1.73076,-3.305059 1.73075,-1.271177 4.32199,-1.271177 1.30052,0 2.58147,0.264014 1.29073,0.264013 2.30767,0.713814 v 3.324616 h -0.32268 q -0.8116,-0.694257 -1.98499,-1.173394 -1.16361,-0.479135 -2.39568,-0.479135 -0.47913,0 -0.86049,0.06845 -0.38135,0.06845 -0.80181,0.264014 -0.34224,0.156453 -0.59648,0.469358 -0.24446,0.303126 -0.24446,0.68448 0,0.557361 0.39113,0.889823 0.40091,0.322684 1.53519,0.586697 0.73337,0.166231 1.40807,0.322683 0.68449,0.156453 1.45698,0.430245 1.51562,0.547584 2.24899,1.47652 0.74315,0.919158 0.74315,2.434796 0,2.170768 -1.7112,3.490842 -1.70141,1.32007 -4.60556,1.32007 z m 14.46207,0.0195 q -3.27572,0 -5.20205,-1.975204 -1.92632,-1.984988 -1.92632,-5.573619 0,-3.461512 1.92632,-5.514951 1.93611,-2.063218 5.21184,-2.063218 0.87026,0 1.56452,0.09779 0.69425,0.09779 1.32985,0.273792 0.49868,0.146675 1.08538,0.40091 0.5867,0.254235 0.9485,0.440022 v 3.471291 h -0.37158 q -0.26402,-0.234679 -0.66492,-0.557363 -0.40091,-0.332461 -0.90938,-0.645366 -0.50847,-0.312905 -1.12451,-0.528028 -0.60624,-0.2249 -1.27117,-0.2249 -0.79205,0 -1.45697,0.254236 -0.65514,0.244456 -1.25162,0.860489 -0.54758,0.557361 -0.8996,1.505855 -0.34223,0.948493 -0.34223,2.239226 0,1.359182 0.36179,2.288119 0.36179,0.919152 0.94849,1.486295 0.56715,0.54758 1.2614,0.79204 0.70403,0.24445 1.39829,0.24445 0.7236,0 1.37874,-0.23468 0.65515,-0.24445 1.10495,-0.53779 0.48891,-0.30313 0.86049,-0.616038 0.37157,-0.312901 0.64536,-0.557355 h 0.33247 v 3.422397 q -0.40092,0.18579 -0.92894,0.43024 -0.52803,0.23467 -1.08539,0.4009 -0.68447,0.20535 -1.28096,0.3129 -0.59647,0.10752 -1.64275,0.10752 z m 14.34474,-0.28357 H 39.8877 v -2.542344 h 2.09254 V 89.504957 H 39.8877 v -2.542353 h 7.84217 v 2.542353 h -2.09254 v 9.475149 h 2.09254 z m 2.42502,0 V 86.962634 h 9.84673 v 2.777032 h -6.20921 v 2.552131 h 5.72029 v 2.777032 h -5.72029 v 3.676637 h 6.20921 v 2.777024 z m 24.79772,0 H 71.43243 L 65.8197,91.372583 V 101.52243 H 62.47552 V 86.962634 h 4.48823 l 4.64469,8.340874 v -8.340874 h 3.34417 z m 13.52336,0 H 76.92783 v -2.728134 l 6.69812,-9.054685 h -6.3461 v -2.777032 h 10.80499 v 2.777032 l -6.68834,9.005795 h 7.07947 z m 0.33246,0 4.918479,-14.559851 h 3.989541 l 4.91848,14.559851 H 98.87029 L 97.9609,98.549846 h -4.576231 l -0.909379,2.972584 z m 8.350659,-5.612724 -1.4863,-4.801136 -1.4863,4.801136 z" id="text2" aria-label="SCIENZA"/><path style="font-weight:bold;font-size:16px;line-height:125%;font-family:Tahoma;-inkscape-font-specification:'Tahoma Bold';letter-spacing:0px;word-spacing:0px;stroke-width:1.11997px" d="M 131.83499,101.50288 V 89.720171 H 128.39 v -2.777006 h 9.81823 v 2.777006 h -3.44499 v 11.782709 z m 7.57899,0 V 86.943165 h 7.88434 v 2.777006 h -4.97176 v 2.552106 h 4.58027 v 2.777006 h -4.58027 v 3.676598 h 4.97176 v 2.776999 z m 14.89177,0.28357 q -2.6229,0 -4.16532,-1.975189 -1.54242,-1.984973 -1.54242,-5.573567 0,-3.461479 1.54242,-5.514898 1.55025,-2.063199 4.17314,-2.063199 0.69683,0 1.25272,0.09779 0.55591,0.09779 1.06482,0.273789 0.39931,0.146673 0.86908,0.400906 0.46977,0.254233 0.75946,0.440018 v 3.471257 h -0.29753 q -0.21138,-0.234676 -0.5324,-0.557357 -0.32101,-0.332458 -0.72814,-0.64536 -0.40714,-0.312903 -0.90041,-0.528023 -0.48542,-0.224897 -1.01783,-0.224897 -0.63419,0 -1.16659,0.254233 -0.52458,0.244454 -1.00218,0.86048 -0.43846,0.557356 -0.72032,1.505841 -0.27403,0.948484 -0.27403,2.239204 0,1.359169 0.28969,2.288096 0.28969,0.91915 0.75946,1.486285 0.45411,0.547578 1.01001,0.792034 0.56373,0.244454 1.11961,0.244454 0.5794,0 1.10398,-0.234677 0.52457,-0.244454 0.88473,-0.537799 0.39147,-0.303125 0.689,-0.616027 0.29752,-0.312902 0.51675,-0.557356 h 0.2662 v 3.422372 q -0.321,0.18578 -0.7438,0.43024 -0.4228,0.23466 -0.86908,0.40089 -0.54807,0.20535 -1.02567,0.3129 -0.47761,0.10757 -1.31535,0.10757 z m 15.66688,-0.28357 H 167.154 l -4.49415,-10.149752 v 10.149752 h -2.6777 V 86.943165 h 3.59375 l 3.71902,8.340794 v -8.340794 h 2.67771 z m 12.98135,-7.274965 q 0,3.529926 -1.5111,5.55401 -1.51109,2.024075 -4.14182,2.024075 -2.63854,0 -4.14181,-2.043631 -1.50327,-2.053419 -1.50327,-5.534454 0,-3.510369 1.50327,-5.544232 1.50327,-2.043642 4.14181,-2.043642 2.63073,0 4.14182,2.033863 1.5111,2.024086 1.5111,5.554011 z m -3.02219,-0.0098 q 0,-1.300499 -0.21923,-2.20987 -0.2114,-0.91915 -0.57155,-1.505841 -0.37582,-0.59647 -0.85343,-0.850703 -0.46977,-0.264011 -0.97868,-0.264011 -0.54024,0 -0.97869,0.244454 -0.43846,0.234677 -0.8456,0.850703 -0.36016,0.567135 -0.58721,1.505841 -0.21922,0.938706 -0.21922,2.239205 0,1.339612 0.21139,2.229427 0.2114,0.880037 0.57938,1.476507 0.37582,0.606247 0.85343,0.870258 0.4776,0.254233 0.98652,0.254233 0.51674,0 1.00218,-0.27379 0.48543,-0.283567 0.83775,-0.870258 0.37582,-0.635583 0.57938,-1.476507 0.20358,-0.850701 0.20358,-2.219648 z m 12.53507,7.284745 h -7.78254 V 86.943165 h 2.92823 v 11.782716 h 4.85431 z m 12.01051,-7.274967 q 0,3.529926 -1.51111,5.55401 -1.5111,2.024077 -4.14182,2.024077 -2.63855,0 -4.14182,-2.043633 -1.50327,-2.053419 -1.50327,-5.534454 0,-3.510369 1.50327,-5.544232 1.50327,-2.043642 4.14182,-2.043642 2.63072,0 4.14182,2.033863 1.51111,2.024086 1.51111,5.554011 z m -3.02221,-0.0098 q 0,-1.300499 -0.21923,-2.20987 -0.21139,-0.91915 -0.57155,-1.505841 -0.37582,-0.59647 -0.85341,-0.850703 -0.46978,-0.264011 -0.97871,-0.264011 -0.54023,0 -0.97869,0.244455 -0.43845,0.234676 -0.84558,0.850702 -0.36015,0.567135 -0.58722,1.505841 -0.21923,0.938706 -0.21923,2.239205 0,1.339612 0.21141,2.229427 0.21139,0.880037 0.57938,1.476507 0.37582,0.606247 0.85342,0.870258 0.4776,0.254233 0.98651,0.254233 0.51676,0 1.00218,-0.27379 0.48544,-0.283566 0.83777,-0.870258 0.37581,-0.635583 0.57939,-1.476507 0.20356,-0.850701 0.20356,-2.219648 z m 14.49246,6.453607 q -0.7673,0.39112 -1.99653,0.76269 -1.22141,0.37157 -2.4115,0.37157 -2.74816,0 -4.38453,-1.975187 -1.62854,-1.984973 -1.62854,-5.622459 0,-3.422365 1.62854,-5.485562 1.63637,-2.063199 4.47066,-2.063199 1.46412,0 2.38018,0.352015 0.91605,0.342237 1.89474,0.938706 v 3.412588 h -0.2662 q -0.2114,-0.205342 -0.61071,-0.576913 -0.39147,-0.381349 -0.76729,-0.645361 -0.43845,-0.312902 -1.01784,-0.537799 -0.57156,-0.224899 -1.21357,-0.224899 -0.75164,0 -1.37017,0.293345 -0.61854,0.293346 -1.10396,0.899594 -0.46194,0.586691 -0.73598,1.486284 -0.26621,0.899593 -0.26621,2.092532 0,2.552108 1.02567,3.764603 1.02567,1.212496 2.80297,1.212496 0.1566,0 0.36799,-0.0098 0.21139,-0.0098 0.36799,-0.02934 v -2.855231 h -2.26274 v -2.728115 h 5.09703 z m 8.01743,0.83114 h -6.27928 v -2.542326 h 1.67553 V 89.48545 h -1.67553 v -2.542329 h 6.27928 v 2.542329 h -1.67552 v 9.475064 h 1.67552 z m 0.689,0 3.93826,-14.559719 h 3.19444 l 3.93825,14.559719 h -3.01437 l -0.72813,-2.972567 h -3.66423 l -0.72814,2.972567 z m 6.68642,-5.612677 -1.19009,-4.80109 -1.19009,4.80109 z" id="text3" aria-label="TECNOLOGIA"/><path style="font-weight:bold;font-size:16px;line-height:125%;font-family:Tahoma;-inkscape-font-specification:'Tahoma Bold';letter-spacing:0px;word-spacing:0px;stroke-width:1.11078px" d="m 140.21116,228.87241 h -2.86475 v -9.6518 l -2.08696,6.22917 h -1.96375 l -2.08696,-6.22917 v 9.6518 H 128.498 V 214.3116 h 3.31912 l 2.54132,7.1875 2.53361,-7.1875 h 3.31911 z m 1.13975,0 3.87357,-14.56081 h 3.142 l 3.87358,14.56081 h -2.96486 l -0.71619,-2.97279 h -3.60405 l -0.7162,2.97279 z m 6.57661,-5.6131 -1.17054,-4.80145 -1.17054,4.80145 z m 7.65477,5.6131 v -11.7836 h -3.38843 v -2.77721 h 9.657 v 2.77721 h -3.38842 v 11.7836 z m 7.45453,0 V 214.3116 h 7.75486 v 2.77721 h -4.89011 v 2.5523 h 4.50506 v 2.77721 h -4.50506 v 3.67688 h 4.89011 v 2.77721 z m 21.41636,0 h -2.86476 v -9.6518 l -2.08696,6.22917 h -1.96375 l -2.08695,-6.22917 v 9.6518 h -2.71074 V 214.3116 h 3.31911 l 2.54132,7.1875 2.53362,-7.1875 h 3.31911 z m 1.13975,0 3.87358,-14.56081 h 3.14199 l 3.87358,14.56081 h -2.96487 l -0.71619,-2.97279 h -3.60405 l -0.71618,2.97279 z m 6.57661,-5.6131 -1.17055,-4.80145 -1.17054,4.80145 z m 7.65476,5.6131 v -11.7836 h -3.38842 v -2.77721 h 9.657 v 2.77721 h -3.38843 v 11.7836 z m 13.16863,0 h -6.17616 v -2.54252 h 1.648 v -9.47577 h -1.648 v -2.54252 h 6.17616 v 2.54252 h -1.64799 v 9.47577 h 1.64799 z m 6.85386,0.28359 q -2.57982,0 -4.0969,-1.97534 -1.51709,-1.98512 -1.51709,-5.57399 0,-3.46173 1.51709,-5.51531 1.52478,-2.06336 4.10461,-2.06336 0.68538,0 1.23215,0.0978 0.54677,0.0978 1.04733,0.27381 0.39275,0.14668 0.85481,0.40093 0.46206,0.25426 0.74699,0.44005 v 3.47152 h -0.29264 q -0.20792,-0.23469 -0.52366,-0.55739 -0.31575,-0.33249 -0.71619,-0.64542 -0.40046,-0.31293 -0.88561,-0.52806 -0.47746,-0.22491 -1.00112,-0.22491 -0.62378,0 -1.14745,0.25425 -0.51596,0.24447 -0.98572,0.86055 -0.43125,0.55739 -0.70849,1.50595 -0.26953,0.94855 -0.26953,2.23937 0,1.35927 0.28493,2.28827 0.28494,0.91922 0.747,1.4864 0.44665,0.54762 0.99342,0.79209 0.55447,0.24447 1.10124,0.24447 0.56986,0 1.08583,-0.23469 0.51597,-0.24447 0.87021,-0.53784 0.38505,-0.30315 0.67769,-0.61607 0.29263,-0.31293 0.50826,-0.5574 h 0.26183 v 3.42262 q -0.31574,0.1858 -0.73159,0.43027 -0.41585,0.2347 -0.8548,0.40094 -0.53908,0.20536 -1.00883,0.31292 -0.46976,0.10752 -1.29377,0.10752 z m 4.35104,-0.28359 3.8736,-14.56081 h 3.14199 l 3.87358,14.56081 h -2.96488 l -0.71618,-2.97279 h -3.60405 l -0.71619,2.97279 z m 6.57663,-5.6131 -1.17055,-4.80145 -1.17054,4.80145 z" id="text3-3" aria-label="MATEMATICA"/><path style="font-weight:bold;font-size:16px;line-height:125%;font-family:Tahoma;-inkscape-font-specification:'Tahoma Bold';letter-spacing:0px;word-spacing:0px;stroke-width:1.11327px" d="M 13.90406,228.85286 H 7.7 v -2.54243 H 9.35544 V 216.835 H 7.7 v -2.54242 h 6.20406 v 2.54242 h -1.65545 v 9.47543 h 1.65545 z m 11.78924,0 h -2.78486 l -4.4403,-10.15015 v 10.15015 h -2.64563 v -14.56028 h 3.55071 l 3.67447,8.34111 v -8.34111 h 2.64561 z m 11.959452,-0.83117 q -0.758101,0.39114 -1.972611,0.76272 -1.206771,0.37159 -2.382611,0.37159 -2.71524,0 -4.33201,-1.97528 -1.60903,-1.98504 -1.60903,-5.62266 0,-3.42251 1.60903,-5.48579 1.61677,-2.06327 4.41711,-2.06327 1.44658,0 2.351661,0.35203 0.90508,0.34224 1.872047,0.93874 v 3.41272 h -0.263014 q -0.208865,-0.20535 -0.603388,-0.57694 -0.386786,-0.38137 -0.758102,-0.64538 -0.4332,-0.31291 -1.005644,-0.53782 -0.56471,-0.22491 -1.19904,-0.22491 -0.74263,0 -1.35375,0.29336 -0.61113,0.29335 -1.09074,0.89963 -0.45641,0.58671 -0.72716,1.48634 -0.26301,0.89963 -0.26301,2.09261 0,2.5522 1.01337,3.76474 1.01339,1.21255 2.7694,1.21255 0.15472,0 0.36358,-0.01 0.20886,-0.01 0.36357,-0.0293 v -2.85534 h -2.23562 v -2.72821 h 5.035962 z m 2.181477,0.83117 v -14.56028 h 7.789882 v 2.77711 h -4.91219 v 2.5522 h 4.525403 v 2.77712 h -4.525403 v 3.67674 h 4.91219 v 2.77711 z m 19.370273,-0.83117 q -0.758102,0.39114 -1.972613,0.76272 -1.206773,0.37159 -2.382605,0.37159 -2.715241,0 -4.332009,-1.97528 -1.609033,-1.98504 -1.609033,-5.62266 0,-3.42251 1.609033,-5.48579 1.616768,-2.06327 4.417103,-2.06327 1.446581,0 2.351662,0.35203 0.90508,0.34224 1.872048,0.93874 v 3.41272 h -0.263016 q -0.208865,-0.20535 -0.603387,-0.57694 -0.386786,-0.38137 -0.758102,-0.64538 -0.433201,-0.31291 -1.005645,-0.53782 -0.564709,-0.22491 -1.199039,-0.22491 -0.74263,0 -1.353752,0.29336 -0.611123,0.29335 -1.090739,0.89963 -0.456407,0.58671 -0.727159,1.48634 -0.263014,0.89963 -0.263014,2.09261 0,2.5522 1.013381,3.76474 1.01338,1.21255 2.769392,1.21255 0.154715,0 0.363579,-0.01 0.208865,-0.01 0.36358,-0.0293 v -2.85534 H 54.16854 v -2.72821 h 5.035962 z m 12.05227,0.83117 h -2.784863 l -4.440311,-10.15015 v 10.15015 h -2.64562 v -14.56028 h 3.5507 l 3.674474,8.34111 v -8.34111 h 2.64562 z m 2.336191,0 v -14.56028 h 7.789881 v 2.77711 h -4.912189 v 2.5522 h 4.525403 v 2.77712 h -4.525403 v 3.67674 h 4.912189 v 2.77711 z m 20.399125,0 h -3.527495 l -3.210327,-5.33909 h -1.036589 v 5.33909 h -2.877692 v -14.56028 h 4.633703 q 0.95923,0 1.670918,0.15645 0.711687,0.14668 1.315075,0.62583 0.618858,0.49871 0.982438,1.27121 0.363578,0.76273 0.363578,1.94594 0,1.67214 -0.59565,2.71845 -0.595652,1.03652 -1.593561,1.65257 z M 89.335177,218.7516 q 0,-0.5476 -0.170186,-0.93874 -0.16245,-0.40092 -0.549237,-0.61605 -0.270751,-0.14668 -0.603387,-0.1858 -0.332637,-0.0391 -0.827724,-0.0391 h -0.966966 v 3.92122 H 87.0454 q 0.603387,0 1.021117,-0.088 0.425466,-0.0977 0.719423,-0.40091 0.278487,-0.2738 0.409994,-0.65517 0.139243,-0.38136 0.139243,-0.99741 z m 11.247753,10.10126 h -6.204056 v -2.54243 h 1.655447 V 216.835 h -1.655447 v -2.54242 h 6.204056 v 2.54242 h -1.655446 v 9.47543 h 1.655446 z m 0.68074,0 3.89108,-14.56028 h 3.15618 l 3.89107,14.56028 h -2.97826 l -0.71942,-2.97268 H 104.884 l -0.71943,2.97268 z m 6.60632,-5.61289 -1.17583,-4.80128 -1.17583,4.80128 z" id="text3-2" aria-label="INGEGNERIA"/></g></svg>